
        <svg xmlns="http://www.w3.org/2000/svg" xmlns:xlink="http://www.w3.org/1999/xlink" version="1.1" width="3300" 
        height="2140.5292296622206" viewBox="0 0 3300 2140.5292296622206">
			<rect fill="#ffffff" width="3300" height="2140.5292296622206"/>
			<g transform="scale(15) translate(10, 10)">
				<defs id="SvgjsDefs2119"></defs><g id="SvgjsG2120" featureKey="JiLV9t-0" transform="matrix(1.0454449342397494,0,0,1.0454449342397494,47.739174581694805,-28.74973369756514)" fill="#ff9999"><path xmlns="http://www.w3.org/2000/svg" d="M53.2,53.6c0,0,33.8-2.3,43.1-26.1C96.3,27.5,110.3,53.6,53.2,53.6z M56.8,55c37.7,11.1,34.6-6.6,34.6-6.6  C81.9,56.2,56.8,55,56.8,55z M56.2,56.7c27.9,18,29.6,2.9,29.6,2.9C76.2,63.7,56.2,56.7,56.2,56.7z M55.8,58.7  c16.1,19.7,20.9,9.1,20.9,9.1C68.7,68.4,55.8,58.7,55.8,58.7z M54.9,60.9c6.2,16.6,11.7,10.7,11.7,10.7  C61.3,70.3,54.9,60.9,54.9,60.9z M46.8,53.6c0,0-33.8-2.3-43.1-26.1C3.7,27.5-10.4,53.6,46.8,53.6z M8.5,48.4c0,0-3.1,17.7,34.6,6.6  C43.1,55,18,56.2,8.5,48.4z M14.1,59.7c0,0,1.7,15.1,29.6-2.9C43.7,56.7,23.7,63.7,14.1,59.7z M23.3,67.7c0,0,4.8,10.6,20.9-9.1  C44.2,58.7,31.2,68.4,23.3,67.7z M33.3,71.6c0,0,5.5,5.9,11.7-10.7C45,60.9,38.7,70.3,33.3,71.6z"></path></g><g id="SvgjsG2121" featureKey="Yxc9Rz-0" transform="matrix(2.719073218232428,0,0,2.719073218232428,-0.45082000370918496,50.98764507414843)" fill="#444f5a"><path d="M12.412 5.888999999999999 l-4.6387 7.3535 l0 6.7578 l-2.9395 0 l0 -6.6895 l-4.668 -7.4219 l3.2422 0 l2.8809 4.8047 l2.8906 -4.8047 l3.2324 0 z M18.701159375 20.19531 c-3.1934 0 -5.498 -1.9434 -5.498 -5.2246 c0 -3.2617 2.2852 -5.2051 5.498 -5.2051 c3.2324 0 5.5078 1.9434 5.5078 5.2051 c0 3.2813 -2.2852 5.2246 -5.5078 5.2246 z M18.671859375 17.959 c1.6309 0 2.7441 -1.1914 2.7441 -2.9883 s-1.1133 -2.9883 -2.7441 -2.9883 c-1.5723 0 -2.6758 1.1914 -2.6758 2.9883 s1.1035 2.9883 2.6758 2.9883 z M42.841750000000005 20 l-2.9199 0 l-0.92773 -10.635 l-3.5742 10.635 l-1.8945 0 l-3.5742 -10.635 l-0.9375 10.635 l-2.9297 0 l1.1816 -14.111 l4.1797 0 l3.0078 8.8574 l3.0469 -8.8574 l4.1797 0 z M53.76953125 17.2754 c0 1.2305 0.11719 2.0117 0.24414 2.4512 l0 0.27344 l-2.627 0 l-0.22461 -1.0938 c-0.75195 0.9082 -2.0508 1.2891 -3.2227 1.2891 c-1.582 0 -3.125 -0.70313 -3.125 -2.793 c0 -2.0801 1.5527 -2.7832 3.6523 -3.2422 l1.6504 -0.37109 c0.71289 -0.16602 0.9668 -0.41016 0.9668 -0.82031 c0 -0.98633 -0.89844 -1.2598 -1.6895 -1.2598 c-1.0156 0 -1.7871 0.40039 -1.9629 1.5332 l-2.4902 -0.44922 c0.41992 -2.0801 1.9434 -3.0273 4.6094 -3.0273 c2.0117 0 4.2188 0.5957 4.2188 3.623 l0 3.8867 z M48.81833125 18.291 c1.3379 0 2.4121 -0.88867 2.4121 -2.8809 l-2.3828 0.67383 c-0.78125 0.18555 -1.3477 0.45898 -1.3477 1.1328 c0 0.72266 0.5957 1.0742 1.3184 1.0742 z M60.244128125 20 c-1.9531 0 -3.0664 -1.1328 -3.0664 -3.1348 l0 -4.7461 l-1.9727 0 l0 -2.1582 l0.63477 0 c1.0645 0 1.6504 -0.41016 1.6504 -1.9141 l0 -1.3281 l2.5391 0 l0 3.2422 l2.0703 0 l0 2.1582 l-2.0703 0 l0 4.4434 c0 0.89844 0.43945 1.2988 1.1621 1.2988 l0.9082 0 l0 2.1387 l-1.8555 0 z M73.720265625 14.834 l-0.029297 0.67383 l-7.4414 0 c0.11719 1.6699 1.2305 2.4707 2.5684 2.4707 c1.0059 0 1.7871 -0.46875 2.168 -1.3574 l2.5781 0.38086 c-0.66406 2.0313 -2.4707 3.1934 -4.7266 3.1934 c-3.2422 0 -5.3613 -1.9141 -5.3613 -5.2148 s2.1777 -5.2344 5.2734 -5.2344 c2.8418 0 4.9609 1.5723 4.9707 5.0879 z M68.769565625 11.7383 c-1.2793 0 -2.168 0.5957 -2.4414 1.9336 l4.6094 0 c-0.14648 -1.2793 -1.0156 -1.9336 -2.168 -1.9336 z"></path></g><g id="SvgjsG2122" featureKey="zc75Em-0" transform="matrix(0.4503997421417492,0,0,0.4503997421417492,19.90091193645911,113.53180940447251)" fill="#ff9999"><path d="M11.26 5.84 l0 1.8 l-4.56 0 l0 12.36 l-1.92 0 l0 -12.36 l-4.56 0 l0 -1.8 l11.04 0 z M31.160000000000004 5.84 c1.3867 0 2.4734 0.34666 3.26 1.04 s1.18 1.6667 1.18 2.92 c0 0.94666 -0.32334 1.7733 -0.97 2.48 s-1.4767 1.1267 -2.49 1.26 l-0.02 0 l4.02 6.46 l-2.4 0 l-3.6 -6.24 l-2.14 0 l0 6.24 l-1.92 0 l0 -14.16 l5.08 0 z M30.6 12.08 c1 0 1.7433 -0.18336 2.23 -0.55002 s0.73 -0.94332 0.73 -1.73 c0 -1.52 -0.98666 -2.28 -2.96 -2.28 l-2.6 0 l0 4.56 l2.6 0 z M51.160000000000004 5.84 l3.86 6.22 l3.98 -6.22 l2.34 0 l-5.36 8.12 l0 6.04 l-1.92 0 l0 -6.04 l-5.36 -8.12 l2.46 0 z M94.52000000000002 5.84 l3.86 6.22 l3.98 -6.22 l2.34 0 l-5.36 8.12 l0 6.04 l-1.92 0 l0 -6.04 l-5.36 -8.12 l2.46 0 z M125.60000000000002 5.48 c2.1066 0 3.8634 0.69998 5.27 2.1 s2.11 3.18 2.11 5.34 c0 1.3733 -0.31334 2.63 -0.94 3.77 s-1.51 2.0366 -2.65 2.69 s-2.4034 0.98 -3.79 0.98 c-1.3733 0 -2.6266 -0.32334 -3.76 -0.97 s-2.02 -1.54 -2.66 -2.68 s-0.96 -2.4034 -0.96 -3.79 c0 -2.1066 0.69 -3.8734 2.07 -5.3 s3.15 -2.14 5.31 -2.14 z M120.26000000000003 12.92 c0 1.6 0.49998 2.94 1.5 4.02 s2.28 1.62 3.84 1.62 c1.5333 0 2.8066 -0.53334 3.82 -1.6 s1.52 -2.4134 1.52 -4.04 c0 -1.6133 -0.5 -2.9566 -1.5 -4.03 s-2.2866 -1.61 -3.86 -1.61 c-1.52 0 -2.7866 0.53334 -3.8 1.6 s-1.52 2.4134 -1.52 4.04 z M150.18000000000004 5.84 l0 8.74 c0 1.16 0.32334 2.1134 0.97 2.86 s1.51 1.12 2.59 1.12 s1.9433 -0.37334 2.59 -1.12 s0.97 -1.7 0.97 -2.86 l0 -8.74 l1.92 0 l0 9.06 c0 0.97334 -0.23 1.8833 -0.69 2.73 s-1.1133 1.5133 -1.96 2 s-1.79 0.73 -2.83 0.73 c-1.6 0 -2.9134 -0.52334 -3.94 -1.57 s-1.54 -2.3434 -1.54 -3.89 l0 -9.06 l1.92 0 z M180.46000000000006 5.84 c1.3867 0 2.4734 0.34666 3.26 1.04 s1.18 1.6667 1.18 2.92 c0 0.94666 -0.32334 1.7733 -0.97 2.48 s-1.4767 1.1267 -2.49 1.26 l-0.02 0 l4.02 6.46 l-2.4 0 l-3.6 -6.24 l-2.14 0 l0 6.24 l-1.92 0 l0 -14.16 l5.08 0 z M179.90000000000006 12.08 c1 0 1.7433 -0.18336 2.23 -0.55002 s0.73 -0.94332 0.73 -1.73 c0 -1.52 -0.98666 -2.28 -2.96 -2.28 l-2.6 0 l0 4.56 l2.6 0 z M227.62000000000006 5.84 l0 1.8 l-6.98 0 l0 4.44 l6.5 0 l0 1.8 l-6.5 0 l0 6.12 l-1.92 0 l0 -14.16 l8.9 0 z M244.64000000000004 5.84 l0 8.74 c0 1.16 0.32334 2.1134 0.97 2.86 s1.51 1.12 2.59 1.12 s1.9433 -0.37334 2.59 -1.12 s0.97 -1.7 0.97 -2.86 l0 -8.74 l1.92 0 l0 9.06 c0 0.97334 -0.23 1.8833 -0.69 2.73 s-1.1133 1.5133 -1.96 2 s-1.79 0.73 -2.83 0.73 c-1.6 0 -2.9134 -0.52334 -3.94 -1.57 s-1.54 -2.3434 -1.54 -3.89 l0 -9.06 l1.92 0 z M279.28000000000003 5.84 l0 1.8 l-4.56 0 l0 12.36 l-1.92 0 l0 -12.36 l-4.56 0 l0 -1.8 l11.04 0 z M295.76000000000005 5.84 l0 8.74 c0 1.16 0.32334 2.1134 0.97 2.86 s1.51 1.12 2.59 1.12 s1.9433 -0.37334 2.59 -1.12 s0.97 -1.7 0.97 -2.86 l0 -8.74 l1.92 0 l0 9.06 c0 0.97334 -0.23 1.8833 -0.69 2.73 s-1.1133 1.5133 -1.96 2 s-1.79 0.73 -2.83 0.73 c-1.6 0 -2.9134 -0.52334 -3.94 -1.57 s-1.54 -2.3434 -1.54 -3.89 l0 -9.06 l1.92 0 z M326.04 5.84 c1.3867 0 2.4734 0.34666 3.26 1.04 s1.18 1.6667 1.18 2.92 c0 0.94666 -0.32334 1.7733 -0.97 2.48 s-1.4767 1.1267 -2.49 1.26 l-0.02 0 l4.02 6.46 l-2.4 0 l-3.6 -6.24 l-2.14 0 l0 6.24 l-1.92 0 l0 -14.16 l5.08 0 z M325.48 12.08 c1 0 1.7433 -0.18336 2.23 -0.55002 s0.73 -0.94332 0.73 -1.73 c0 -1.52 -0.98666 -2.28 -2.96 -2.28 l-2.6 0 l0 4.56 l2.6 0 z M355.1 5.84 l0 1.8 l-7.22 0 l0 4.22 l6.72 0 l0 1.8 l-6.72 0 l0 4.54 l7.58 0 l0 1.8 l-9.5 0 l0 -14.16 l9.14 0 z"></path></g>
			</g>
		</svg>
	